<?xml version="1.0" encoding="utf-8"?>
<!-- Generator: Adobe Illustrator 16.0.0, SVG Export Plug-In . SVG Version: 6.00 Build 0)  -->
<!DOCTYPE svg PUBLIC "-//W3C//DTD SVG 1.1//EN" "http://www.w3.org/Graphics/SVG/1.1/DTD/svg11.dtd">
<svg version="1.1" id="Layer_1" xmlns="http://www.w3.org/2000/svg" xmlns:xlink="http://www.w3.org/1999/xlink" x="0px" y="0px"
	 width="1296px" height="864px" viewBox="0 0 1296 864" enable-background="new 0 0 1296 864" xml:space="preserve">
<g>
	<path fill="#010101" d="M151.58,555.024v-0.078c0-7.411,5.514-13.553,13.039-13.553c4.658,0,7.453,1.721,10.136,4.194l-1.38,1.425
		c-2.273-2.21-4.879-3.857-8.792-3.857c-6.259,0-10.99,5.126-10.99,11.721v0.07c0,6.631,4.805,11.799,11.026,11.799
		c3.764,0,6.334-1.457,8.979-4.083l1.305,1.278c-2.757,2.732-5.739,4.567-10.359,4.567
		C157.094,568.508,151.58,562.554,151.58,555.024z"/>
	<path fill="none" stroke="#000000" stroke-width="0.216" stroke-miterlimit="2.6131" d="M151.58,555.024v-0.078
		c0-7.411,5.514-13.553,13.039-13.553c4.658,0,7.453,1.721,10.136,4.194l-1.38,1.425c-2.273-2.21-4.879-3.857-8.792-3.857
		c-6.259,0-10.99,5.126-10.99,11.721v0.07c0,6.631,4.805,11.799,11.026,11.799c3.764,0,6.334-1.457,8.979-4.083l1.305,1.278
		c-2.757,2.732-5.739,4.567-10.359,4.567C157.094,568.508,151.58,562.554,151.58,555.024z"/>
	<path fill="#010101" d="M231.776,555.024L231.776,555.024v-0.078c0-6.473-4.693-11.791-11.142-11.791
		c-6.442,0-11.063,5.238-11.063,11.721v0.07c0,6.481,4.696,11.799,11.139,11.799C227.158,566.745,231.776,561.505,231.776,555.024z
		 M207.56,555.024v-0.078c0-7.147,5.253-13.553,13.15-13.553c7.899,0,13.079,6.326,13.079,13.482v0.07
		c0,7.156-5.254,13.562-13.154,13.562C212.739,568.508,207.56,562.178,207.56,555.024z"/>
	<path fill="none" stroke="#000000" stroke-width="0.216" stroke-miterlimit="2.6131" d="M231.776,555.024L231.776,555.024v-0.078
		c0-6.473-4.693-11.791-11.142-11.791c-6.442,0-11.063,5.238-11.063,11.721v0.07c0,6.481,4.696,11.799,11.139,11.799
		C227.158,566.745,231.776,561.505,231.776,555.024z M207.56,555.024v-0.078c0-7.147,5.253-13.553,13.15-13.553
		c7.899,0,13.079,6.326,13.079,13.482v0.07c0,7.156-5.254,13.562-13.154,13.562C212.739,568.508,207.56,562.178,207.56,555.024z"/>
	<polygon fill="#010101" points="269.61,541.841 271.437,541.841 289.433,564.646 289.433,541.841 291.293,541.841 291.293,568.056 
		289.842,568.056 271.473,544.765 271.473,568.056 269.61,568.056 	"/>
	<polygon fill="none" stroke="#000000" stroke-width="0.216" stroke-miterlimit="2.6131" points="269.61,541.841 271.437,541.841 
		289.433,564.646 289.433,541.841 291.293,541.841 291.293,568.056 289.842,568.056 271.473,544.765 271.473,568.056 
		269.61,568.056 	"/>
	<polygon fill="#010101" points="328.277,541.841 330.102,541.841 348.095,564.646 348.095,541.841 349.959,541.841 
		349.959,568.056 348.507,568.056 330.138,544.765 330.138,568.056 328.277,568.056 	"/>
	<polygon fill="none" stroke="#000000" stroke-width="0.216" stroke-miterlimit="2.6131" points="328.277,541.841 330.102,541.841 
		348.095,564.646 348.095,541.841 349.959,541.841 349.959,568.056 348.507,568.056 330.138,544.765 330.138,568.056 
		328.277,568.056 	"/>
	<polygon fill="#010101" points="386.938,541.841 405.49,541.841 405.49,543.641 388.874,543.641 388.874,553.94 403.816,553.94 
		403.816,555.734 388.874,555.734 388.874,566.262 405.678,566.262 405.678,568.056 386.938,568.056 	"/>
	<polygon fill="none" stroke="#000000" stroke-width="0.216" stroke-miterlimit="2.6131" points="386.938,541.841 405.49,541.841 
		405.49,543.641 388.874,543.641 388.874,553.94 403.816,553.94 403.816,555.734 388.874,555.734 388.874,566.262 405.678,566.262 
		405.678,568.056 386.938,568.056 	"/>
	<path fill="#010101" d="M439.977,555.024v-0.078c0-7.411,5.514-13.553,13.039-13.553c4.659,0,7.455,1.721,10.136,4.194l-1.38,1.425
		c-2.271-2.21-4.879-3.857-8.79-3.857c-6.262,0-10.992,5.126-10.992,11.721v0.07c0,6.631,4.805,11.799,11.026,11.799
		c3.765,0,6.334-1.457,8.981-4.083l1.304,1.278c-2.759,2.732-5.738,4.567-10.358,4.567
		C445.49,568.508,439.977,562.554,439.977,555.024z"/>
	<path fill="none" stroke="#000000" stroke-width="0.216" stroke-miterlimit="2.6131" d="M439.977,555.024v-0.078
		c0-7.411,5.514-13.553,13.039-13.553c4.659,0,7.455,1.721,10.136,4.194l-1.38,1.425c-2.271-2.21-4.879-3.857-8.79-3.857
		c-6.262,0-10.992,5.126-10.992,11.721v0.07c0,6.631,4.805,11.799,11.026,11.799c3.765,0,6.334-1.457,8.981-4.083l1.304,1.278
		c-2.759,2.732-5.738,4.567-10.358,4.567C445.49,568.508,439.977,562.554,439.977,555.024z"/>
	<polygon fill="#010101" points="505.082,543.641 495.992,543.641 495.992,541.841 516.112,541.841 516.112,543.641 
		507.021,543.641 507.021,568.056 505.082,568.056 	"/>
	<polygon fill="none" stroke="#000000" stroke-width="0.216" stroke-miterlimit="2.6131" points="505.082,543.641 495.992,543.641 
		495.992,541.841 516.112,541.841 516.112,543.641 507.021,543.641 507.021,568.056 505.082,568.056 	"/>
	<rect x="551.491" y="541.841" fill="#010101" width="1.938" height="26.215"/>
	
		<rect x="551.491" y="541.841" fill="none" stroke="#000000" stroke-width="0.216" stroke-miterlimit="2.6131" width="1.938" height="26.215"/>
	<polygon fill="#010101" points="590.672,541.841 592.5,541.841 610.494,564.646 610.494,541.841 612.356,541.841 612.356,568.056 
		610.905,568.056 592.536,544.765 592.536,568.056 590.672,568.056 	"/>
	<polygon fill="none" stroke="#000000" stroke-width="0.216" stroke-miterlimit="2.6131" points="590.672,541.841 592.5,541.841 
		610.494,564.646 610.494,541.841 612.356,541.841 612.356,568.056 610.905,568.056 592.536,544.765 592.536,568.056 
		590.672,568.056 	"/>
	<path fill="#010101" d="M648.183,555.024v-0.078c0-7.074,5.102-13.553,12.891-13.553c4.246,0,6.929,1.275,9.536,3.443l-1.265,1.464
		c-2.052-1.802-4.438-3.146-8.387-3.146c-6.328,0-10.765,5.391-10.765,11.721v0.07c0,6.783,4.207,11.837,11.177,11.837
		c3.315,0,6.41-1.386,8.31-2.996v-7.525h-8.722v-1.797h10.581v10.112c-2.345,2.096-5.996,3.931-10.242,3.931
		C653.062,568.508,648.183,562.4,648.183,555.024z"/>
	<path fill="none" stroke="#000000" stroke-width="0.216" stroke-miterlimit="2.6131" d="M648.183,555.024v-0.078
		c0-7.074,5.102-13.553,12.891-13.553c4.246,0,6.929,1.275,9.536,3.443l-1.265,1.464c-2.052-1.802-4.438-3.146-8.387-3.146
		c-6.328,0-10.765,5.391-10.765,11.721v0.07c0,6.783,4.207,11.837,11.177,11.837c3.315,0,6.41-1.386,8.31-2.996v-7.525h-8.722
		v-1.797h10.581v10.112c-2.345,2.096-5.996,3.931-10.242,3.931C653.062,568.508,648.183,562.4,648.183,555.024z"/>
	<polygon fill="#010101" points="755.416,543.641 746.326,543.641 746.326,541.841 766.446,541.841 766.446,543.641 
		757.354,543.641 757.354,568.056 755.416,568.056 	"/>
	<polygon fill="none" stroke="#000000" stroke-width="0.216" stroke-miterlimit="2.6131" points="755.416,543.641 746.326,543.641 
		746.326,541.841 766.446,541.841 766.446,543.641 757.354,543.641 757.354,568.056 755.416,568.056 	"/>
	<polygon fill="#010101" points="801.562,541.841 803.499,541.841 803.499,553.979 820.187,553.979 820.187,541.841 
		822.126,541.841 822.126,568.056 820.187,568.056 820.187,555.772 803.499,555.772 803.499,568.056 801.562,568.056 	"/>
	<polygon fill="none" stroke="#000000" stroke-width="0.216" stroke-miterlimit="2.6131" points="801.562,541.841 803.499,541.841 
		803.499,553.979 820.187,553.979 820.187,541.841 822.126,541.841 822.126,568.056 820.187,568.056 820.187,555.772 
		803.499,555.772 803.499,568.056 801.562,568.056 	"/>
	<polygon fill="#010101" points="859.105,541.841 877.662,541.841 877.662,543.641 861.042,543.641 861.042,553.94 875.984,553.94 
		875.984,555.734 861.042,555.734 861.042,566.262 877.845,566.262 877.845,568.056 859.105,568.056 	"/>
	<polygon fill="none" stroke="#000000" stroke-width="0.216" stroke-miterlimit="2.6131" points="859.105,541.841 877.662,541.841 
		877.662,543.641 861.042,543.641 861.042,553.94 875.984,553.94 875.984,555.734 861.042,555.734 861.042,566.262 877.845,566.262 
		877.845,568.056 859.105,568.056 	"/>
	<path fill="#010101" d="M962.391,566.262L962.391,566.262c7.266,0,11.848-4.984,11.848-11.237v-0.078
		c0-6.213-4.582-11.306-11.848-11.306h-6.746v22.621H962.391z M953.711,541.841h8.68c8.195,0,13.86,5.656,13.86,13.035v0.07
		c0,7.385-5.665,13.109-13.86,13.109h-8.68V541.841z"/>
	<path fill="none" stroke="#000000" stroke-width="0.216" stroke-miterlimit="2.6131" d="M962.391,566.262L962.391,566.262
		c7.266,0,11.848-4.984,11.848-11.237v-0.078c0-6.213-4.582-11.306-11.848-11.306h-6.746v22.621H962.391z M953.711,541.841h8.68
		c8.195,0,13.86,5.656,13.86,13.035v0.07c0,7.385-5.665,13.109-13.86,13.109h-8.68V541.841z"/>
	<path fill="#010101" d="M1035.138,555.024L1035.138,555.024v-0.078c0-6.473-4.693-11.791-11.14-11.791
		c-6.445,0-11.065,5.238-11.065,11.721v0.07c0,6.481,4.693,11.799,11.14,11.799C1030.521,566.745,1035.138,561.505,1035.138,555.024
		z M1010.921,555.024v-0.078c0-7.147,5.251-13.553,13.151-13.553c7.903,0,13.08,6.326,13.08,13.482v0.07
		c0,7.156-5.259,13.562-13.154,13.562C1016.098,568.508,1010.921,562.178,1010.921,555.024z"/>
	<path fill="none" stroke="#000000" stroke-width="0.216" stroke-miterlimit="2.6131" d="M1035.138,555.024L1035.138,555.024v-0.078
		c0-6.473-4.693-11.791-11.14-11.791c-6.445,0-11.065,5.238-11.065,11.721v0.07c0,6.481,4.693,11.799,11.14,11.799
		C1030.521,566.745,1035.138,561.505,1035.138,555.024z M1010.921,555.024v-0.078c0-7.147,5.251-13.553,13.151-13.553
		c7.903,0,13.08,6.326,13.08,13.482v0.07c0,7.156-5.259,13.562-13.154,13.562C1016.098,568.508,1010.921,562.178,1010.921,555.024z"
		/>
	<polygon fill="#010101" points="1078.15,543.641 1069.063,543.641 1069.063,541.841 1089.182,541.841 1089.182,543.641 
		1080.094,543.641 1080.094,568.056 1078.15,568.056 	"/>
	<polygon fill="none" stroke="#000000" stroke-width="0.216" stroke-miterlimit="2.6131" points="1078.15,543.641 1069.063,543.641 
		1069.063,541.841 1089.182,541.841 1089.182,543.641 1080.094,543.641 1080.094,568.056 1078.15,568.056 	"/>
	<path fill="#010101" d="M1122.061,564.239l1.266-1.464c2.872,2.66,5.519,3.897,9.354,3.897c3.91,0,6.595-2.211,6.595-5.203v-0.08
		c0-2.767-1.457-4.383-7.373-5.579c-6.26-1.271-8.798-3.406-8.798-7.379v-0.07c0-3.898,3.542-6.89,8.383-6.89
		c3.808,0,6.293,1.047,8.945,3.179l-1.228,1.535c-2.462-2.131-4.924-2.957-7.791-2.957c-3.838,0-6.372,2.209-6.372,4.946v0.072
		c0,2.767,1.417,4.456,7.6,5.731c6.036,1.234,8.569,3.41,8.569,7.226v0.073c0,4.235-3.613,7.154-8.638,7.154
		C1128.395,568.432,1125.193,567.045,1122.061,564.239z"/>
	<path fill="none" stroke="#000000" stroke-width="0.216" stroke-miterlimit="2.6131" d="M1122.061,564.239l1.266-1.464
		c2.872,2.66,5.519,3.897,9.354,3.897c3.91,0,6.595-2.211,6.595-5.203v-0.08c0-2.767-1.457-4.383-7.373-5.579
		c-6.26-1.271-8.798-3.406-8.798-7.379v-0.07c0-3.898,3.542-6.89,8.383-6.89c3.808,0,6.293,1.047,8.945,3.179l-1.228,1.535
		c-2.462-2.131-4.924-2.957-7.791-2.957c-3.838,0-6.372,2.209-6.372,4.946v0.072c0,2.767,1.417,4.456,7.6,5.731
		c6.036,1.234,8.569,3.41,8.569,7.226v0.073c0,4.235-3.613,7.154-8.638,7.154C1128.395,568.432,1125.193,567.045,1122.061,564.239z"
		/>
	<path fill="#FFC30D" d="M221.715,471.619L221.715,471.619l-10.044-16.927l39.551-65.992l13.906,113.823h-17.458l-7.416-61.804
		l-17.147,28.416L221.715,471.619z M169.189,502.523h-17.458l14.213-113.823l34.142,57.607l18.23,30.904l-10.044,16.773
		l-14.829-24.85l-16.529-28.263L169.189,502.523z"/>
	<path fill="#FFC30D" d="M336.808,427.521L336.808,427.521l-28.581,57.609h57.161L336.808,427.521z M336.808,388.701l56.542,113.823
		H280.11L336.808,388.701z"/>
	<path fill="#FFC30D" d="M522.348,445.686c0,7.872-1.493,15.248-4.479,22.127c-2.989,6.893-7.026,12.892-12.127,18.019
		c-5.098,5.12-11.072,9.185-17.921,12.188c-6.849,3.001-14.188,4.504-22.015,4.504c-7.827,0-15.166-1.503-22.013-4.504
		c-6.852-3.004-12.849-7.068-17.999-12.188c-5.148-5.127-9.218-11.126-12.204-18.019c-2.99-6.879-4.48-14.255-4.48-22.127
		c0-7.863,1.49-15.263,4.48-22.201c2.986-6.936,7.056-12.968,12.204-18.091c5.15-5.126,11.147-9.187,17.999-12.189
		c6.848-3.003,14.186-4.503,22.013-4.503c8.549,0,16.479,1.761,23.793,5.279c7.311,3.523,13.594,8.232,18.847,14.133l-13.903,13.972
		c-3.4-4.243-7.571-7.606-12.515-10.091c-4.943-2.484-10.35-3.727-16.223-3.727c-5.149,0-9.99,0.987-14.522,2.956
		c-4.531,1.971-8.47,4.639-11.816,8.016c-3.35,3.373-6.001,7.336-7.957,11.902c-1.958,4.564-2.935,9.437-2.935,14.624
		c0,5.187,0.978,10.066,2.935,14.628c1.956,4.567,4.607,8.53,7.957,11.907c3.346,3.373,7.285,6.041,11.816,8.009
		c4.532,1.974,9.373,2.959,14.522,2.959c7.208,0,13.751-1.877,19.621-5.629c5.872-3.762,10.351-8.716,13.442-14.867h-26.264
		l-2.935-17.086h29.199h4.171H522.348z"/>
	<rect x="537.795" y="388.701" fill="#FFC30D" width="19.004" height="113.823"/>
	<path fill="#FFC30D" d="M638.06,445.686L638.06,445.686c0,2.486-0.877,4.614-2.626,6.369c-1.751,1.761-3.862,2.638-6.337,2.638
		c-2.47,0-4.607-0.877-6.41-2.638c-1.804-1.755-2.702-3.883-2.702-6.369c0-2.584,0.898-4.759,2.702-6.518
		c1.803-1.759,3.939-2.64,6.41-2.64c2.475,0,4.585,0.881,6.337,2.64C637.183,440.927,638.06,443.102,638.06,445.686
		 M669.265,485.908c-5.25,5.174-11.274,9.235-18.075,12.188c-6.797,2.951-14.111,4.428-21.937,4.428
		c-7.827,0-15.192-1.503-22.092-4.504c-6.9-3.004-12.897-7.068-17.997-12.188c-5.098-5.127-9.142-11.126-12.129-18.019
		c-2.988-6.879-4.479-14.255-4.479-22.127c0-7.863,1.491-15.263,4.479-22.201c2.987-6.936,7.031-12.968,12.129-18.091
		c5.1-5.126,11.097-9.187,17.997-12.189c6.9-3.003,14.266-4.503,22.092-4.503c7.826,0,15.164,1.474,22.013,4.425
		c6.851,2.951,12.85,7.066,17.999,12.347l-13.75,13.819c-3.398-3.416-7.339-6.105-11.817-8.076
		c-4.48-1.965-9.296-2.949-14.445-2.949c-5.15,0-9.991,0.983-14.522,2.949c-4.533,1.97-8.47,4.635-11.817,8
		c-3.348,3.363-6.001,7.323-7.958,11.876c-1.957,4.558-2.934,9.418-2.934,14.594c0,5.18,0.978,10.019,2.934,14.523
		c1.957,4.502,4.609,8.44,7.958,11.8c3.347,3.368,7.284,6.029,11.817,7.995c4.531,1.972,9.373,2.951,14.522,2.951
		c5.149,0,9.965-0.979,14.445-2.951c4.479-1.966,8.419-4.603,11.817-7.917L669.265,485.908z"/>
	<path d="M758.981,494.568L758.981,494.568c19.344,0,31.597-8.912,31.597-23.171v-0.324c0-13.932-12.088-22.035-34.341-22.035
		h-38.206v45.53H758.981z M755.275,441.258L755.275,441.258c16.923,0,29.018-8.265,29.018-23.334v-0.326
		c0-12.475-10.158-20.904-28.214-20.904h-38.048v44.564H755.275z M709.645,388.919h46.593c12.736,0,23.06,3.725,29.344,10.044
		c4.673,4.702,7.256,10.697,7.256,17.827v0.324c0,15.391-9.997,23.17-19.185,26.898c13.539,3.564,25.469,11.345,25.469,27.061v0.324
		c0,18.959-16.119,30.946-40.46,30.946h-49.017V388.919z"/>
	<path d="M894.565,461.354L894.565,461.354v-0.325c0-19.937-14.828-35.813-33.858-35.813c-19.502,0-33.527,16.043-33.527,35.488
		v0.325c0,19.926,14.832,35.811,33.849,35.811C880.539,496.839,894.565,480.8,894.565,461.354 M818.634,461.354v-0.325
		c0-23.174,17.895-43.268,42.395-43.268c24.349,0,42.081,19.769,42.081,42.942v0.325c0,23.169-17.891,43.266-42.402,43.266
		C836.367,504.294,818.634,484.521,818.634,461.354z"/>
	<polygon points="952.606,465.563 923.59,502.344 914.078,502.344 947.614,460.215 915.362,419.708 925.2,419.708 952.769,454.706 
		980.659,419.708 990.174,419.708 957.771,460.055 991.46,502.344 981.631,502.344 	"/>
	<polygon points="175.729,302.561 153.729,302.561 153.729,298.21 202.423,298.21 202.423,302.561 180.421,302.561 180.421,361.656 
		175.729,361.656 	"/>
	<path d="M213.861,295.492h4.42v28.551c3.065-5.44,8.207-9.698,16.593-9.698c11.632,0,18.394,7.977,18.394,19.033v28.278h-4.417
		v-27.46c0-9.518-5.32-15.773-14.61-15.773c-9.017,0-15.96,6.889-15.96,16.497v26.737h-4.42V295.492z"/>
	<path d="M304.116,336.37L304.116,336.37c-0.633-9.337-5.954-17.947-16.504-17.947c-9.108,0-16.141,7.705-16.951,17.947H304.116z
		 M265.968,338.636v-0.181c0-13.415,9.378-24.109,21.823-24.109c12.895,0,21.102,10.514,21.102,24.2c0,0.814,0,1.088-0.092,1.812
		H270.66c0.81,11.512,9.015,18.22,18.033,18.22c7.123,0,11.993-3.172,15.78-7.251l3.065,2.72
		c-4.688,5.073-10.188,8.701-19.027,8.701C276.43,362.747,265.968,353.047,265.968,338.636z"/>
	<rect x="1028.407" y="388.486" width="112.646" height="113.222"/>
	<rect x="1030.344" y="390.425" fill="#FFFFFF" width="108.778" height="109.336"/>
	
		<line fill="none" stroke="#000000" stroke-width="0.216" stroke-miterlimit="10" x1="1028.407" y1="388.486" x2="1139.749" y2="453.458"/>
	
		<line fill="none" stroke="#000000" stroke-width="0.216" stroke-miterlimit="10" x1="1092.422" y1="425.84" x2="1028.407" y2="501.708"/>
	
		<line fill="none" stroke="#000000" stroke-width="0.216" stroke-miterlimit="10" x1="1141.053" y1="388.486" x2="1029.011" y2="472.867"/>
	
		<line fill="none" stroke="#000000" stroke-width="0.216" stroke-miterlimit="10" x1="1079.632" y1="500.899" x2="1029.714" y2="389.796"/>
	
		<line fill="none" stroke="#000000" stroke-width="0.216" stroke-miterlimit="10" x1="1029.011" y1="420.974" x2="1141.053" y2="501.708"/>
	
		<line fill="none" stroke="#000000" stroke-width="0.216" stroke-miterlimit="10" x1="1141.053" y1="388.486" x2="1079.632" y2="500.899"/>
	
		<line fill="none" stroke="#000000" stroke-width="0.216" stroke-miterlimit="10" x1="1139.749" y1="453.458" x2="1029.714" y2="500.393"/>
	<path d="M1033.032,389.053c0,2.238-1.796,4.042-4.021,4.042c-2.224,0-4.022-1.804-4.022-4.042c0-2.237,1.799-4.042,4.022-4.042
		C1031.236,385.01,1033.032,386.815,1033.032,389.053"/>
	<path d="M1144.372,389.053c0,2.238-1.794,4.042-4.022,4.042c-2.218,0-4.02-1.804-4.02-4.042c0-2.237,1.802-4.042,4.02-4.042
		C1142.578,385.01,1144.372,386.815,1144.372,389.053"/>
	<path d="M1144.419,500.899c0,2.233-1.794,4.047-4.016,4.047c-2.224,0-4.021-1.813-4.021-4.047c0-2.238,1.798-4.041,4.021-4.041
		C1142.625,496.858,1144.419,498.661,1144.419,500.899z"/>
	<path fill="none" stroke="#000000" stroke-width="0.216" stroke-miterlimit="2.6131" d="M1144.419,500.899
		c0,2.233-1.794,4.047-4.016,4.047c-2.224,0-4.021-1.813-4.021-4.047c0-2.238,1.798-4.041,4.021-4.041
		C1142.625,496.858,1144.419,498.661,1144.419,500.899z"/>
	<path d="M1033.08,500.899c0,2.233-1.797,4.047-4.022,4.047c-2.22,0-4.011-1.813-4.011-4.047c0-2.238,1.791-4.041,4.011-4.041
		C1031.283,496.858,1033.08,498.661,1033.08,500.899z"/>
	<path fill="none" stroke="#000000" stroke-width="0.216" stroke-miterlimit="2.6131" d="M1033.08,500.899
		c0,2.233-1.797,4.047-4.022,4.047c-2.22,0-4.011-1.813-4.011-4.047c0-2.238,1.791-4.041,4.011-4.041
		C1031.283,496.858,1033.08,498.661,1033.08,500.899z"/>
	
		<line fill="none" stroke="#000000" stroke-width="0.216" stroke-miterlimit="10" x1="1076.686" y1="389.053" x2="1092.422" y2="425.84"/>
	
		<line fill="none" stroke="#000000" stroke-width="0.216" stroke-miterlimit="10" x1="1076.686" y1="389.053" x2="1050.766" y2="436.648"/>
</g>
</svg>
